<?xml version="1.0" encoding="UTF-8" standalone="no"?>
<!DOCTYPE svg PUBLIC "-//W3C//DTD SVG 1.1//EN" "http://www.w3.org/Graphics/SVG/1.1/DTD/svg11.dtd">
<!-- Created with Vectornator (http://vectornator.io/) -->
<svg height="100%" stroke-miterlimit="10" style="fill-rule:nonzero;clip-rule:evenodd;stroke-linecap:round;stroke-linejoin:round;" version="1.1" viewBox="0 0 622 128" width="100%" xml:space="preserve" xmlns="http://www.w3.org/2000/svg" xmlns:vectornator="http://vectornator.io" xmlns:xlink="http://www.w3.org/1999/xlink">
<defs/>
<g id="Untitled" vectornator:layerName="Untitled">
<path d="M601.039 77.886L592.204 65.8818L592.204 40.2891L601.039 40.2891L601.039 77.886ZM601.039 82.9436L594.093 82.9436C593.402 82.9436 592.691 82.7811 591.96 82.4561C591.229 82.1311 590.64 81.664 590.193 81.0546L571.486 54.426L571.486 82.9436L562.65 82.9436L562.65 40.2891L568.683 40.2891C569.374 40.2891 570.084 40.4516 570.816 40.7765C571.547 41.1015 572.116 41.5687 572.522 42.1781C575.447 46.4841 578.331 50.8105 581.175 55.1572C584.059 59.4633 587.024 63.7084 590.071 67.8926C591.899 70.4519 593.727 72.9706 595.555 75.4486C597.383 77.9266 599.211 80.4249 601.039 82.9436Z" fill="#0c3146" fill-rule="nonzero" opacity="1" stroke="none" vectornator:layerName="path"/>
<path d="M532.39 83.6142C529.302 83.6142 526.377 83.0658 523.615 81.969C520.893 80.8315 518.517 79.2878 516.486 77.3379C514.454 75.3474 512.83 73.0115 511.611 70.3304C510.433 67.6493 509.844 64.7447 509.844 61.6167C509.844 58.4887 510.433 55.5841 511.611 52.903C512.83 50.2218 514.454 47.9063 516.486 45.9564C518.517 43.9658 520.893 42.4222 523.615 41.3253C526.377 40.1879 529.302 39.6191 532.39 39.6191C535.477 39.6191 538.382 40.1879 541.103 41.3253C543.866 42.4222 546.263 43.9658 548.294 45.9564C550.366 47.9063 551.99 50.2218 553.169 52.903C554.387 55.5841 554.997 58.4887 554.997 61.6167C554.997 64.7447 554.387 67.6493 553.169 70.3304C551.99 73.0115 550.366 75.3474 548.294 77.3379C546.263 79.2878 543.866 80.8315 541.103 81.969C538.382 83.0658 535.477 83.6142 532.39 83.6142ZM532.39 75.5099C534.38 75.5099 536.188 75.1646 537.813 74.474C539.478 73.7428 540.9 72.7475 542.078 71.4882C543.297 70.2288 544.231 68.7664 544.881 67.1008C545.572 65.3947 545.917 63.5666 545.917 61.6167C545.917 59.6668 545.572 57.859 544.881 56.1935C544.231 54.4873 543.297 53.0045 542.078 51.7452C540.9 50.4859 539.478 49.5109 537.813 48.8203C536.188 48.0891 534.38 47.7235 532.39 47.7235C530.44 47.7235 528.632 48.0891 526.966 48.8203C525.301 49.5515 523.879 50.5468 522.701 51.8061C521.523 53.0248 520.589 54.4873 519.898 56.1935C519.248 57.859 518.923 59.6668 518.923 61.6167C518.923 63.5666 519.248 65.3947 519.898 67.1008C520.589 68.7664 521.523 70.2288 522.701 71.4882C523.879 72.7069 525.301 73.6818 526.966 74.413C528.632 75.1443 530.44 75.5099 532.39 75.5099Z" fill="#0c3146" fill-rule="nonzero" opacity="1" stroke="none" vectornator:layerName="path"/>
<path d="M504.515 82.9436L496.654 82.9436C496.086 82.9436 495.537 82.8014 495.009 82.517C494.522 82.2327 494.156 81.8264 493.912 81.2983L487.209 68.2582C486.966 67.7301 486.58 67.3239 486.052 67.0395C485.564 66.7552 485.036 66.613 484.467 66.613L476.668 66.613L476.668 82.9436L467.832 82.9436L467.832 59.3617L487.941 59.3617C488.834 59.3617 489.667 59.2399 490.439 58.9961C491.251 58.7524 491.962 58.3868 492.572 57.8993C493.181 57.4118 493.668 56.8228 494.034 56.1322C494.4 55.401 494.583 54.5682 494.583 53.6338C494.583 52.6995 494.4 51.887 494.034 51.1964C493.668 50.4652 493.181 49.8559 492.572 49.3684C491.962 48.8809 491.251 48.5153 490.439 48.2716C489.667 48.0278 488.834 47.9059 487.941 47.9059L470.879 47.9059C470.066 47.9059 469.355 47.6013 468.746 46.9919C468.137 46.3826 467.832 45.6717 467.832 44.8592L467.832 40.2891L488.733 40.2891C490.723 40.2891 492.612 40.5937 494.4 41.2031C496.187 41.7718 497.751 42.6249 499.092 43.7624C500.432 44.8592 501.489 46.2404 502.26 47.9059C503.032 49.5309 503.418 51.3996 503.418 53.512C503.418 56.2337 502.646 58.6305 501.103 60.7023C499.6 62.7741 497.629 64.3381 495.192 65.3943L504.515 82.9436Z" fill="#0c3146" fill-rule="nonzero" opacity="1" stroke="none" vectornator:layerName="path"/>
<path d="M445.835 82.9436L437 82.9436L437 48.0887L422.619 48.0887L422.619 40.2891L462.166 40.2891L459.85 46.1388C459.647 46.7076 459.282 47.1747 458.754 47.5403C458.225 47.9059 457.657 48.0887 457.047 48.0887L445.835 48.0887L445.835 82.9436Z" fill="#0c3146" fill-rule="nonzero" opacity="1" stroke="none" vectornator:layerName="path"/>
<path d="M416.828 82.9436L407.992 82.9436L407.992 40.2891L413.781 40.2891C414.594 40.2891 415.304 40.5937 415.914 41.2031C416.523 41.8124 416.828 42.5233 416.828 43.3358L416.828 82.9436Z" fill="#0c3146" fill-rule="nonzero" opacity="1" stroke="none" vectornator:layerName="path"/>
<path d="M373.031 47.6013L373.031 82.9436L364.195 82.9436L364.195 40.2891L384.182 40.2891C386.01 40.2891 387.777 40.5328 389.483 41.0203C391.23 41.4671 392.774 42.178 394.114 43.153C395.496 44.0873 396.592 45.2857 397.405 46.7482C398.258 48.2106 398.685 49.9574 398.685 51.9886C398.685 53.9385 398.217 55.665 397.283 57.1681C396.349 58.6711 395.089 59.9305 393.505 60.946C395.414 61.8804 396.999 63.1803 398.258 64.8459C399.517 66.4708 400.147 68.3801 400.147 70.5738C400.147 72.6862 399.72 74.5345 398.867 76.1189C398.055 77.6625 396.938 78.9422 395.516 79.9578C394.135 80.9734 392.55 81.7249 390.763 82.2124C388.976 82.6998 387.107 82.9436 385.157 82.9436L376.078 82.9436L378.149 77.5813C378.353 77.0126 378.718 76.5454 379.246 76.1798C379.774 75.8142 380.343 75.6314 380.952 75.6314C382.009 75.6314 383.126 75.6314 384.304 75.6314C385.523 75.5908 386.64 75.408 387.655 75.083C388.712 74.758 389.585 74.2096 390.276 73.4377C390.966 72.6659 391.311 71.5487 391.311 70.0863C391.311 69.152 391.108 68.3395 390.702 67.6489C390.336 66.9583 389.829 66.3896 389.179 65.9427C388.529 65.4959 387.797 65.1709 386.985 64.9678C386.173 64.724 385.34 64.6021 384.487 64.6021L376.2 64.6021L378.028 59.6664C378.231 59.0977 378.596 58.6305 379.124 58.2649C379.693 57.8993 380.282 57.7165 380.892 57.7165C381.826 57.7165 382.801 57.6962 383.816 57.6555C384.873 57.6149 385.848 57.4524 386.741 57.1681C387.635 56.8431 388.366 56.3353 388.935 55.6447C389.544 54.9541 389.849 53.9588 389.849 52.6589C389.849 51.7652 389.666 50.9933 389.301 50.3433C388.976 49.6934 388.508 49.1653 387.899 48.759C387.33 48.3528 386.68 48.0684 385.949 47.9059C385.218 47.7028 384.446 47.6013 383.634 47.6013L373.031 47.6013Z" fill="#0c3146" fill-rule="nonzero" opacity="1" stroke="none" vectornator:layerName="path"/>
<path d="M357.89 82.9436L350.029 82.9436C349.461 82.9436 348.912 82.8014 348.384 82.517C347.897 82.2327 347.531 81.8264 347.287 81.2983L340.584 68.2582C340.341 67.7301 339.955 67.3239 339.427 67.0395C338.939 66.7552 338.411 66.613 337.842 66.613L330.043 66.613L330.043 82.9436L321.207 82.9436L321.207 59.3617L341.316 59.3617C342.209 59.3617 343.042 59.2399 343.814 58.9961C344.626 58.7524 345.337 58.3868 345.947 57.8993C346.556 57.4118 347.043 56.8228 347.409 56.1322C347.775 55.401 347.958 54.5682 347.958 53.6338C347.958 52.6995 347.775 51.887 347.409 51.1964C347.043 50.4652 346.556 49.8559 345.947 49.3684C345.337 48.8809 344.626 48.5153 343.814 48.2716C343.042 48.0278 342.209 47.9059 341.316 47.9059L324.254 47.9059C323.441 47.9059 322.73 47.6013 322.121 46.9919C321.512 46.3826 321.207 45.6717 321.207 44.8592L321.207 40.2891L342.108 40.2891C344.098 40.2891 345.987 40.5937 347.775 41.2031C349.562 41.7718 351.126 42.6249 352.467 43.7624C353.807 44.8592 354.863 46.2404 355.635 47.9059C356.407 49.5309 356.793 51.3996 356.793 53.512C356.793 56.2337 356.021 58.6305 354.478 60.7023C352.974 62.7741 351.004 64.3381 348.567 65.3943L357.89 82.9436Z" fill="#0c3146" fill-rule="nonzero" opacity="1" stroke="none" vectornator:layerName="path"/>
<path d="M291.028 83.6142C287.941 83.6142 285.016 83.0658 282.254 81.969C279.532 80.8315 277.156 79.2878 275.124 77.3379C273.093 75.3474 271.468 73.0115 270.25 70.3304C269.071 67.6493 268.482 64.7447 268.482 61.6167C268.482 58.4887 269.071 55.5841 270.25 52.903C271.468 50.2218 273.093 47.9063 275.124 45.9564C277.156 43.9658 279.532 42.4222 282.254 41.3253C285.016 40.1879 287.941 39.6191 291.028 39.6191C294.116 39.6191 297.02 40.1879 299.742 41.3253C302.504 42.4222 304.901 43.9658 306.932 45.9564C309.004 47.9063 310.629 50.2218 311.807 52.903C313.026 55.5841 313.635 58.4887 313.635 61.6167C313.635 64.7447 313.026 67.6493 311.807 70.3304C310.629 73.0115 309.004 75.3474 306.932 77.3379C304.901 79.2878 302.504 80.8315 299.742 81.969C297.02 83.0658 294.116 83.6142 291.028 83.6142ZM291.028 75.5099C293.019 75.5099 294.827 75.1646 296.452 74.474C298.117 73.7428 299.539 72.7475 300.717 71.4882C301.936 70.2288 302.87 68.7664 303.52 67.1008C304.211 65.3947 304.556 63.5666 304.556 61.6167C304.556 59.6668 304.211 57.859 303.52 56.1935C302.87 54.4873 301.936 53.0045 300.717 51.7452C299.539 50.4859 298.117 49.5109 296.452 48.8203C294.827 48.0891 293.019 47.7235 291.028 47.7235C289.078 47.7235 287.271 48.0891 285.605 48.8203C283.94 49.5515 282.518 50.5468 281.34 51.8061C280.162 53.0248 279.227 54.4873 278.537 56.1935C277.887 57.859 277.562 59.6668 277.562 61.6167C277.562 63.5666 277.887 65.3947 278.537 67.1008C279.227 68.7664 280.162 70.2288 281.34 71.4882C282.518 72.7069 283.94 73.6818 285.605 74.413C287.271 75.1443 289.078 75.5099 291.028 75.5099Z" fill="#00d060" fill-rule="nonzero" opacity="1" stroke="none" vectornator:layerName="path"/>
<path d="M246.34 83.6138C243.253 83.6138 240.328 83.0857 237.565 82.0295C234.803 80.9327 232.386 79.4093 230.314 77.4594C228.242 75.5095 226.597 73.194 225.378 70.5128C224.2 67.8317 223.611 64.9068 223.611 61.7382C223.611 58.5695 224.2 55.6447 225.378 52.9635C226.597 50.2418 228.242 47.9059 230.314 45.956C232.386 43.9655 234.803 42.4218 237.565 41.3249C240.328 40.2281 243.253 39.6797 246.34 39.6797C249.671 39.6797 252.901 40.3703 256.029 41.7515C259.157 43.0921 261.818 45.042 264.011 47.6012C263.646 47.845 263.158 48.1903 262.549 48.6371C261.98 49.084 261.371 49.5309 260.721 49.9777C260.111 50.3839 259.502 50.7496 258.893 51.0745C258.283 51.3995 257.755 51.562 257.308 51.562C256.862 51.562 256.313 51.3792 255.663 51.0136C255.054 50.6074 254.302 50.1605 253.409 49.673C252.515 49.1856 251.479 48.759 250.301 48.3934C249.163 47.9872 247.843 47.784 246.34 47.784C244.39 47.784 242.582 48.1497 240.917 48.8809C239.251 49.6121 237.809 50.6074 236.59 51.8667C235.372 53.0854 234.417 54.5478 233.727 56.254C233.036 57.9602 232.691 59.7882 232.691 61.7382C232.691 63.6881 233.036 65.5161 233.727 67.2223C234.458 68.8879 235.453 70.33 236.712 71.5487C237.972 72.7674 239.434 73.7424 241.1 74.4736C242.806 75.1642 244.634 75.5095 246.584 75.5095C248.046 75.5095 249.346 75.3267 250.484 74.9611C251.621 74.5955 252.616 74.1892 253.469 73.7424C254.323 73.2549 255.054 72.8284 255.663 72.4627C256.313 72.0971 256.862 71.9143 257.308 71.9143C257.755 71.9143 258.263 72.0768 258.832 72.4018C259.441 72.6862 260.05 73.0518 260.66 73.4986C261.269 73.9049 261.858 74.3314 262.427 74.7783C262.996 75.2251 263.463 75.5704 263.828 75.8142C262.772 77.0329 261.574 78.1297 260.233 79.1047C258.893 80.0796 257.451 80.9124 255.907 81.603C254.404 82.253 252.84 82.7404 251.215 83.0654C249.59 83.431 247.965 83.6138 246.34 83.6138Z" fill="#0c3146" fill-rule="nonzero" opacity="1" stroke="none" vectornator:layerName="path"/>
<path d="M216.793 47.9059L186.082 47.9059L186.082 40.2891L221.912 40.2891L219.596 45.956C219.353 46.5247 218.967 46.9919 218.439 47.3575C217.951 47.7231 217.403 47.9059 216.793 47.9059ZM208.628 65.3334L186.082 65.3334L186.082 57.8993L213.625 57.8993L211.431 63.3834C211.187 63.9522 210.801 64.4193 210.273 64.7849C209.786 65.1506 209.237 65.3334 208.628 65.3334ZM216.976 82.9436L186.082 82.9436L186.082 75.3267L221.912 75.3267L219.84 80.9327C219.637 81.5421 219.271 82.0296 218.743 82.3952C218.215 82.7608 217.626 82.9436 216.976 82.9436Z" fill="#0c3146" fill-rule="nonzero" opacity="1" stroke="none" vectornator:layerName="path"/>
<path d="M164.009 82.9436L155.174 82.9436L155.174 48.0887L140.793 48.0887L140.793 40.2891L180.34 40.2891L178.024 46.1388C177.821 46.7076 177.456 47.1747 176.927 47.5403C176.399 47.9059 175.831 48.0887 175.221 48.0887L164.009 48.0887L164.009 82.9436Z" fill="#0c3146" fill-rule="nonzero" opacity="1" stroke="none" vectornator:layerName="path"/>
<path d="M19.9551 56.3315L19.9551 23.5173C19.9551 23.1037 20.2903 22.7685 20.7039 22.7685L21.4527 22.7685C36.3409 22.7685 48.4101 34.8377 48.4101 49.7259L48.4101 77.5223C48.4101 78.0522 47.5533 78.1702 47.383 77.6684C41.7373 61.0354 28.8038 58.1044 20.6133 57.0773C20.2365 57.0301 19.9551 56.7112 19.9551 56.3315Z" fill="#0c3146" fill-rule="nonzero" opacity="1" stroke="none" vectornator:layerName="path"/>
<path d="M80.1579 20.0443L107.67 35.9283C108.028 36.1351 108.149 36.5957 107.942 36.9538C100.498 49.8474 83.9573 54.3588 71.0638 46.9147L48.5109 33.8939C48.0525 33.6292 48.3762 32.8264 48.8959 32.9274C65.5593 36.1639 74.322 26.6686 79.1823 20.2422C79.4115 19.9392 79.8288 19.8544 80.1579 20.0443Z" fill="#00d060" fill-rule="nonzero" opacity="1" stroke="none" vectornator:layerName="path"/>
<path d="M81.2915 90.9596L53.7796 106.844C53.4215 107.05 52.962 106.925 52.7552 106.567C45.3112 93.6734 49.6746 77.0927 62.5682 69.6486L85.121 56.6277C85.5794 56.363 86.1127 57.0448 85.7655 57.4444C74.6309 70.2571 78.4727 82.5934 81.6079 90.0157C81.7558 90.3658 81.6206 90.7696 81.2915 90.9596Z" fill="#0c3146" fill-rule="nonzero" opacity="1" stroke="none" vectornator:layerName="path"/>
</g>
</svg>
