<?xml version="1.0" encoding="UTF-8" standalone="no"?>
<!DOCTYPE svg PUBLIC "-//W3C//DTD SVG 1.1//EN" "http://www.w3.org/Graphics/SVG/1.1/DTD/svg11.dtd">
<!-- Created with Vectornator (http://vectornator.io/) -->
<svg height="100%" stroke-miterlimit="10" style="fill-rule:nonzero;clip-rule:evenodd;stroke-linecap:round;stroke-linejoin:round;" version="1.1" viewBox="0 0 100 100" width="100%" xml:space="preserve" xmlns="http://www.w3.org/2000/svg" xmlns:vectornator="http://vectornator.io" xmlns:xlink="http://www.w3.org/1999/xlink">
<defs/>
<g id="Untitled" vectornator:layerName="Untitled">
<path d="M5.95508 42.3315L5.95508 9.5173C5.95508 9.10374 6.29033 8.76848 6.70389 8.76848L7.45271 8.76848C22.3409 8.76848 34.4101 20.8377 34.4101 35.7259L34.4101 63.5223C34.4101 64.0522 33.5533 64.1702 33.383 63.6684C27.7373 47.0354 14.8038 44.1044 6.61329 43.0773C6.23652 43.0301 5.95508 42.7112 5.95508 42.3315Z" fill="#e6faef" fill-rule="nonzero" opacity="1" stroke="none" vectornator:layerName="path"/>
<path d="M66.1579 6.04435L93.6698 21.9283C94.028 22.1351 94.1492 22.5957 93.9424 22.9538C86.4983 35.8474 69.9573 40.3588 57.0638 32.9147L34.5109 19.8939C34.0525 19.6292 34.3762 18.8264 34.8959 18.9274C51.5593 22.1639 60.322 12.6686 65.1823 6.24225C65.4115 5.93917 65.8288 5.85435 66.1579 6.04435Z" fill="#00d060" fill-rule="nonzero" opacity="1" stroke="none" vectornator:layerName="path"/>
<path d="M67.2915 76.9596L39.7796 92.8436C39.4215 93.0503 38.962 92.925 38.7552 92.5669C31.3112 79.6734 35.6746 63.0927 48.5682 55.6486L71.121 42.6277C71.5794 42.363 72.1127 43.0448 71.7655 43.4444C60.6309 56.2571 64.4727 68.5934 67.6079 76.0157C67.7558 76.3658 67.6206 76.7696 67.2915 76.9596Z" fill="#e6faef" fill-rule="nonzero" opacity="1" stroke="none" vectornator:layerName="path"/>
</g>
</svg>
