<?xml version="1.0" encoding="UTF-8" standalone="no"?>
<!DOCTYPE svg PUBLIC "-//W3C//DTD SVG 1.1//EN" "http://www.w3.org/Graphics/SVG/1.1/DTD/svg11.dtd">
<!-- Created with Vectornator (http://vectornator.io/) -->
<svg height="100%" stroke-miterlimit="10" style="fill-rule:nonzero;clip-rule:evenodd;stroke-linecap:round;stroke-linejoin:round;" version="1.1" viewBox="0 0 501 84" width="100%" xml:space="preserve" xmlns="http://www.w3.org/2000/svg" xmlns:vectornator="http://vectornator.io" xmlns:xlink="http://www.w3.org/1999/xlink">
<defs/>
<g id="Untitled" vectornator:layerName="Untitled">
<path d="M480.246 58.2668L471.411 46.2626L471.411 20.6699L480.246 20.6699L480.246 58.2668ZM480.246 63.3244L473.3 63.3244C472.609 63.3244 471.898 63.1619 471.167 62.837C470.436 62.512 469.847 62.0448 469.4 61.4355L450.693 34.8068L450.693 63.3244L441.857 63.3244L441.857 20.6699L447.89 20.6699C448.581 20.6699 449.292 20.8324 450.023 21.1574C450.754 21.4824 451.323 21.9496 451.729 22.5589C454.654 26.865 457.538 31.1914 460.382 35.5381C463.266 39.8441 466.231 44.0893 469.278 48.2735C471.106 50.8328 472.934 53.3514 474.762 55.8294C476.59 58.3075 478.418 60.8058 480.246 63.3244Z" fill="#e6faef" fill-rule="nonzero" opacity="1" stroke="none" vectornator:layerName="path"/>
<path d="M411.597 63.9951C408.509 63.9951 405.584 63.4467 402.822 62.3498C400.1 61.2124 397.724 59.6687 395.693 57.7188C393.662 55.7282 392.037 53.3924 390.818 50.7113C389.64 48.0301 389.051 45.1255 389.051 41.9975C389.051 38.8695 389.64 35.965 390.818 33.2838C392.037 30.6027 393.662 28.2872 395.693 26.3372C397.724 24.3467 400.1 22.803 402.822 21.7062C405.584 20.5687 408.509 20 411.597 20C414.684 20 417.589 20.5687 420.31 21.7062C423.073 22.803 425.47 24.3467 427.501 26.3372C429.573 28.2872 431.198 30.6027 432.376 33.2838C433.594 35.965 434.204 38.8695 434.204 41.9975C434.204 45.1255 433.594 48.0301 432.376 50.7113C431.198 53.3924 429.573 55.7282 427.501 57.7188C425.47 59.6687 423.073 61.2124 420.31 62.3498C417.589 63.4467 414.684 63.9951 411.597 63.9951ZM411.597 55.8907C413.587 55.8907 415.395 55.5454 417.02 54.8548C418.686 54.1236 420.107 53.1283 421.285 51.869C422.504 50.6097 423.438 49.1473 424.088 47.4817C424.779 45.7755 425.124 43.9475 425.124 41.9975C425.124 40.0476 424.779 38.2399 424.088 36.5743C423.438 34.8681 422.504 33.3854 421.285 32.1261C420.107 30.8667 418.686 29.8918 417.02 29.2012C415.395 28.47 413.587 28.1044 411.597 28.1044C409.647 28.1044 407.839 28.47 406.174 29.2012C404.508 29.9324 403.086 30.9277 401.908 32.187C400.73 33.4057 399.796 34.8681 399.105 36.5743C398.455 38.2399 398.13 40.0476 398.13 41.9975C398.13 43.9475 398.455 45.7755 399.105 47.4817C399.796 49.1473 400.73 50.6097 401.908 51.869C403.086 53.0877 404.508 54.0627 406.174 54.7939C407.839 55.5251 409.647 55.8907 411.597 55.8907Z" fill="#e6faef" fill-rule="nonzero" opacity="1" stroke="none" vectornator:layerName="path"/>
<path d="M383.722 63.3244L375.861 63.3244C375.293 63.3244 374.744 63.1823 374.216 62.8979C373.729 62.6135 373.363 62.2073 373.119 61.6792L366.416 48.6391C366.173 48.111 365.787 47.7048 365.259 47.4204C364.771 47.136 364.243 46.9939 363.674 46.9939L355.875 46.9939L355.875 63.3244L347.039 63.3244L347.039 39.7426L367.148 39.7426C368.041 39.7426 368.874 39.6207 369.646 39.377C370.458 39.1332 371.169 38.7676 371.779 38.2801C372.388 37.7927 372.876 37.2036 373.241 36.513C373.607 35.7818 373.79 34.949 373.79 34.0147C373.79 33.0804 373.607 32.2679 373.241 31.5773C372.876 30.8461 372.388 30.2367 371.779 29.7492C371.169 29.2618 370.458 28.8962 369.646 28.6524C368.874 28.4087 368.041 28.2868 367.148 28.2868L350.086 28.2868C349.273 28.2868 348.562 27.9821 347.953 27.3728C347.344 26.7634 347.039 26.0525 347.039 25.2401L347.039 20.6699L367.94 20.6699C369.93 20.6699 371.819 20.9746 373.607 21.5839C375.394 22.1527 376.958 23.0058 378.299 24.1432C379.639 25.2401 380.696 26.6212 381.467 28.2868C382.239 29.9117 382.625 31.7804 382.625 33.8928C382.625 36.6146 381.853 39.0114 380.31 41.0832C378.807 43.1549 376.836 44.7189 374.399 45.7752L383.722 63.3244Z" fill="#e6faef" fill-rule="nonzero" opacity="1" stroke="none" vectornator:layerName="path"/>
<path d="M325.042 63.3244L316.207 63.3244L316.207 28.4696L301.826 28.4696L301.826 20.6699L341.373 20.6699L339.057 26.5197C338.854 27.0884 338.489 27.5556 337.961 27.9212C337.433 28.2868 336.864 28.4696 336.254 28.4696L325.042 28.4696L325.042 63.3244Z" fill="#e6faef" fill-rule="nonzero" opacity="1" stroke="none" vectornator:layerName="path"/>
<path d="M296.035 63.3244L287.199 63.3244L287.199 20.6699L292.988 20.6699C293.801 20.6699 294.511 20.9746 295.121 21.5839C295.73 22.1933 296.035 22.9042 296.035 23.7167L296.035 63.3244Z" fill="#e6faef" fill-rule="nonzero" opacity="1" stroke="none" vectornator:layerName="path"/>
<path d="M252.238 27.9821L252.238 63.3244L243.402 63.3244L243.402 20.6699L263.389 20.6699C265.217 20.6699 266.984 20.9137 268.69 21.4011C270.437 21.848 271.981 22.5589 273.321 23.5339C274.703 24.4682 275.799 25.6666 276.612 27.129C277.465 28.5915 277.892 30.3383 277.892 32.3694C277.892 34.3194 277.424 36.0459 276.49 37.5489C275.556 39.052 274.296 40.3113 272.712 41.3269C274.621 42.2612 276.206 43.5612 277.465 45.2267C278.724 46.8517 279.354 48.761 279.354 50.9546C279.354 53.067 278.927 54.9154 278.074 56.4997C277.262 58.0434 276.145 59.323 274.723 60.3386C273.342 61.3542 271.757 62.1057 269.97 62.5932C268.183 63.0807 266.314 63.3244 264.364 63.3244L255.285 63.3244L257.356 57.9622C257.56 57.3934 257.925 56.9263 258.453 56.5607C258.981 56.195 259.55 56.0122 260.159 56.0122C261.216 56.0122 262.333 56.0122 263.511 56.0122C264.73 55.9716 265.847 55.7888 266.862 55.4638C267.919 55.1388 268.792 54.5904 269.483 53.8186C270.173 53.0467 270.518 51.9296 270.518 50.4672C270.518 49.5328 270.315 48.7203 269.909 48.0298C269.543 47.3392 269.036 46.7704 268.386 46.3236C267.736 45.8767 267.005 45.5517 266.192 45.3486C265.38 45.1049 264.547 44.983 263.694 44.983L255.407 44.983L257.235 40.0473C257.438 39.4785 257.803 39.0114 258.331 38.6458C258.9 38.2801 259.489 38.0973 260.099 38.0973C261.033 38.0973 262.008 38.077 263.023 38.0364C264.08 37.9958 265.055 37.8333 265.948 37.5489C266.842 37.2239 267.573 36.7161 268.142 36.0256C268.751 35.335 269.056 34.3397 269.056 33.0397C269.056 32.146 268.873 31.3742 268.508 30.7242C268.183 30.0742 267.715 29.5461 267.106 29.1399C266.537 28.7337 265.887 28.4493 265.156 28.2868C264.425 28.0837 263.653 27.9821 262.841 27.9821L252.238 27.9821Z" fill="#e6faef" fill-rule="nonzero" opacity="1" stroke="none" vectornator:layerName="path"/>
<path d="M237.097 63.3244L229.236 63.3244C228.668 63.3244 228.119 63.1823 227.591 62.8979C227.104 62.6135 226.738 62.2073 226.494 61.6792L219.791 48.6391C219.548 48.111 219.162 47.7048 218.634 47.4204C218.146 47.136 217.618 46.9939 217.049 46.9939L209.25 46.9939L209.25 63.3244L200.414 63.3244L200.414 39.7426L220.523 39.7426C221.416 39.7426 222.249 39.6207 223.021 39.377C223.833 39.1332 224.544 38.7676 225.154 38.2801C225.763 37.7927 226.251 37.2036 226.616 36.513C226.982 35.7818 227.165 34.949 227.165 34.0147C227.165 33.0804 226.982 32.2679 226.616 31.5773C226.251 30.8461 225.763 30.2367 225.154 29.7492C224.544 29.2618 223.833 28.8962 223.021 28.6524C222.249 28.4087 221.416 28.2868 220.523 28.2868L203.461 28.2868C202.648 28.2868 201.937 27.9821 201.328 27.3728C200.719 26.7634 200.414 26.0525 200.414 25.2401L200.414 20.6699L221.315 20.6699C223.305 20.6699 225.194 20.9746 226.982 21.5839C228.769 22.1527 230.333 23.0058 231.674 24.1432C233.014 25.2401 234.071 26.6212 234.842 28.2868C235.614 29.9117 236 31.7804 236 33.8928C236 36.6146 235.228 39.0114 233.685 41.0832C232.182 43.1549 230.211 44.7189 227.774 45.7752L237.097 63.3244Z" fill="#e6faef" fill-rule="nonzero" opacity="1" stroke="none" vectornator:layerName="path"/>
<path d="M170.235 63.9951C167.148 63.9951 164.223 63.4467 161.461 62.3498C158.739 61.2124 156.363 59.6687 154.331 57.7188C152.3 55.7282 150.675 53.3924 149.457 50.7113C148.278 48.0301 147.689 45.1255 147.689 41.9975C147.689 38.8695 148.278 35.965 149.457 33.2838C150.675 30.6027 152.3 28.2872 154.331 26.3372C156.363 24.3467 158.739 22.803 161.461 21.7062C164.223 20.5687 167.148 20 170.235 20C173.323 20 176.227 20.5687 178.949 21.7062C181.712 22.803 184.108 24.3467 186.139 26.3372C188.211 28.2872 189.836 30.6027 191.014 33.2838C192.233 35.965 192.842 38.8695 192.842 41.9975C192.842 45.1255 192.233 48.0301 191.014 50.7113C189.836 53.3924 188.211 55.7282 186.139 57.7188C184.108 59.6687 181.712 61.2124 178.949 62.3498C176.227 63.4467 173.323 63.9951 170.235 63.9951ZM170.235 55.8907C172.226 55.8907 174.034 55.5454 175.659 54.8548C177.324 54.1236 178.746 53.1283 179.924 51.869C181.143 50.6097 182.077 49.1473 182.727 47.4817C183.418 45.7755 183.763 43.9475 183.763 41.9975C183.763 40.0476 183.418 38.2399 182.727 36.5743C182.077 34.8681 181.143 33.3854 179.924 32.1261C178.746 30.8667 177.324 29.8918 175.659 29.2012C174.034 28.47 172.226 28.1044 170.235 28.1044C168.285 28.1044 166.478 28.47 164.812 29.2012C163.147 29.9324 161.725 30.9277 160.547 32.187C159.369 33.4057 158.434 34.8681 157.744 36.5743C157.094 38.2399 156.769 40.0476 156.769 41.9975C156.769 43.9475 157.094 45.7755 157.744 47.4817C158.434 49.1473 159.369 50.6097 160.547 51.869C161.725 53.0877 163.147 54.0627 164.812 54.7939C166.478 55.5251 168.285 55.8907 170.235 55.8907Z" fill="#00d060" fill-rule="nonzero" opacity="1" stroke="none" vectornator:layerName="path"/>
<path d="M125.547 63.9947C122.46 63.9947 119.535 63.4666 116.772 62.4104C114.01 61.3136 111.593 59.7902 109.521 57.8403C107.449 55.8903 105.804 53.5748 104.585 50.8937C103.407 48.2125 102.818 45.2876 102.818 42.119C102.818 38.9504 103.407 36.0255 104.585 33.3444C105.804 30.6226 107.449 28.2868 109.521 26.3369C111.593 24.3463 114.01 22.8026 116.772 21.7058C119.535 20.609 122.46 20.0605 125.547 20.0605C128.878 20.0605 132.108 20.7511 135.236 22.1323C138.364 23.4729 141.025 25.4228 143.218 27.9821C142.853 28.2258 142.365 28.5711 141.756 29.018C141.187 29.4649 140.578 29.9117 139.928 30.3586C139.318 30.7648 138.709 31.1304 138.1 31.4554C137.49 31.7804 136.962 31.9429 136.515 31.9429C136.069 31.9429 135.52 31.7601 134.87 31.3945C134.261 30.9882 133.509 30.5414 132.616 30.0539C131.722 29.5664 130.686 29.1399 129.508 28.7743C128.37 28.368 127.05 28.1649 125.547 28.1649C123.597 28.1649 121.789 28.5305 120.124 29.2617C118.458 29.993 117.016 30.9882 115.798 32.2476C114.579 33.4663 113.624 34.9287 112.934 36.6349C112.243 38.3411 111.898 40.1691 111.898 42.119C111.898 44.0689 112.243 45.897 112.934 47.6032C113.665 49.2687 114.66 50.7109 115.919 51.9296C117.179 53.1483 118.641 54.1232 120.307 54.8544C122.013 55.545 123.841 55.8903 125.791 55.8903C127.253 55.8903 128.553 55.7075 129.691 55.3419C130.828 54.9763 131.823 54.5701 132.677 54.1232C133.53 53.6357 134.261 53.2092 134.87 52.8436C135.52 52.478 136.069 52.2952 136.515 52.2952C136.962 52.2952 137.47 52.4577 138.039 52.7827C138.648 53.067 139.258 53.4326 139.867 53.8795C140.476 54.2857 141.065 54.7123 141.634 55.1591C142.203 55.606 142.67 55.9513 143.035 56.195C141.979 57.4137 140.781 58.5106 139.44 59.4855C138.1 60.4605 136.658 61.2933 135.114 61.9838C133.611 62.6338 132.047 63.1213 130.422 63.4463C128.797 63.8119 127.172 63.9947 125.547 63.9947Z" fill="#e6faef" fill-rule="nonzero" opacity="1" stroke="none" vectornator:layerName="path"/>
<path d="M96.0003 28.2868L65.2891 28.2868L65.2891 20.6699L101.119 20.6699L98.8033 26.3369C98.5596 26.9056 98.1737 27.3728 97.6456 27.7384C97.1581 28.104 96.6097 28.2868 96.0003 28.2868ZM87.835 45.7142L65.2891 45.7142L65.2891 38.2801L92.8317 38.2801L90.638 43.7643C90.3943 44.333 90.0084 44.8002 89.4803 45.1658C88.9928 45.5314 88.4444 45.7142 87.835 45.7142ZM96.1831 63.3244L65.2891 63.3244L65.2891 55.7076L101.119 55.7076L99.0471 61.3136C98.844 61.9229 98.4783 62.4104 97.9502 62.776C97.4221 63.1416 96.8331 63.3244 96.1831 63.3244Z" fill="#e6faef" fill-rule="nonzero" opacity="1" stroke="none" vectornator:layerName="path"/>
<path d="M43.2162 63.3244L34.3807 63.3244L34.3807 28.4696L20 28.4696L20 20.6699L59.5468 20.6699L57.2313 26.5197C57.0282 27.0884 56.6626 27.5556 56.1345 27.9212C55.6064 28.2868 55.0376 28.4696 54.4283 28.4696L43.2162 28.4696L43.2162 63.3244Z" fill="#e6faef" fill-rule="nonzero" opacity="1" stroke="none" vectornator:layerName="path"/>
</g>
</svg>
